<?xml version="1.0" encoding="utf-8"?>
<!-- Generator: Adobe Illustrator 27.5.0, SVG Export Plug-In . SVG Version: 6.00 Build 0)  -->
<svg version="1.1" xmlns="http://www.w3.org/2000/svg" xmlns:xlink="http://www.w3.org/1999/xlink" x="0px" y="0px"
	 viewBox="0 0 600 400" style="enable-background:new 0 0 600 400;" xml:space="preserve">
<g id="_x30_0">
	<rect style="fill:#FFFFFF;" width="600" height="400"/>
	<rect style="opacity:0;fill:#FFFFFF;" width="600" height="400"/>
</g>
<g id="_x30_">
	<path style="fill:#FFF0DA;" d="M71.428,154.745c-4.175,4.821-9.333,8.67-14.067,12.944c-6.883,6.213-17.738,13.718-18.483,23.875
		c-0.45,6.138,3.708,12.018,9.214,14.769c9.192,4.593,23.024,2.108,30.83-4.365c13.904-11.531,23.065-28.618,24.973-46.58
		c0.553-5.206,0.495-10.616-1.43-15.484c-1.924-4.868-5.996-9.122-11.131-10.14C77.249,126.971,78.019,147.135,71.428,154.745z"/>
	<path style="fill:#FFF0DA;" d="M50.186,135.193c-0.24-4.199-3.806-7.356-7.567-7.495c-7.412-0.273-20.615,15.592-12.659,21.428
		C36.278,153.762,50.649,143.284,50.186,135.193z"/>
	<path style="fill:#FFF0DA;" d="M530.85,31.339c-3.559,0.793-5.709,4.145-5.245,7.227c0.916,6.074,16.551,14.568,20.315,7.26
		C548.909,40.023,537.707,29.811,530.85,31.339z"/>
	<path style="fill:#B6ECF0;" d="M251.228,370.094c0.328-2.781-1.557-5.191-3.91-5.635c-4.636-0.876-14.76,8.305-10.416,12.887
		C240.352,380.984,250.597,375.453,251.228,370.094z"/>
	<path style="fill:#FFF0DA;" d="M561.491,187.841c-2.048,0.456-3.286,2.385-3.018,4.159c0.527,3.495,9.525,8.384,11.691,4.178
		C571.884,192.839,565.438,186.962,561.491,187.841z"/>
	<path style="fill:#FFF0DA;" d="M563.482,256.064c0.208-0.031,0.414-0.066,0.617-0.105c21.555-4.104-5.507-30.749-12.134-36.394
		c-10.91-9.293-28.748-20.943-43.529-13.702c-5.807,2.846-9.92,9.551-8.473,15.856c2.668,11.621,14.691,18.629,24.683,23.256
		C534.389,249.487,552.484,257.726,563.482,256.064z"/>
	<path style="fill:#FFF0DA;" d="M494.685,78.882c3.858,0.047,7.964-0.879,10.64-3.658c3.161-3.282,3.589-8.519,2.065-12.812
		c-1.525-4.294-4.686-7.8-8.038-10.885c-9.384-8.636-21.958-15.121-34.553-13.12c-2.85,0.453-5.761,1.41-7.741,3.51
		c-5.086,5.393-1.499,14.37,3.457,18.511c6.214,5.192,12.646,11.057,19.91,14.706C484.849,77.354,489.707,78.822,494.685,78.882z"/>
	<path style="fill:#B6ECF0;" d="M193.006,373.238c12.447-7.023,26.498-17.791,30.977-31.459c1.76-5.371,1.761-11.572-1.628-15.955
		c-6.111-7.902-18.43-6.363-27.327-3.959c-18.851,5.092-35.856,14.878-44.495,32.684c-5.925,12.212-2.837,24.517,11.962,26.594
		c5.379,0.755,10.949-0.119,16.249-1.63C182.802,378.356,187.804,376.174,193.006,373.238z"/>
</g>
<g id="bg">
	<path style="fill:#839FF2;" d="M521.483,350.672H83.126c-6.409,0-11.604-5.195-11.604-11.604V68.96
		c0-6.409,5.195-11.604,11.604-11.604h438.358c6.409,0,11.604,5.195,11.604,11.604v270.108
		C533.087,345.477,527.892,350.672,521.483,350.672z"/>
	<path style="fill:#3E579E;" d="M503.987,334.695H100.753c-6.524,0-11.813-5.289-11.813-11.814V86.331
		c0-6.524,5.289-11.813,11.813-11.813h403.233c6.524,0,11.814,5.289,11.814,11.813v236.55
		C515.8,329.406,510.511,334.695,503.987,334.695z"/>
	<path style="fill:#486BD4;" d="M120.469,334.695h-19.901c-6.423,0-11.629-5.207-11.629-11.629V86.229
		c0-6.468,5.243-11.711,11.711-11.711h19.819V334.695z"/>
	<g>
		<g>
			<rect x="120.469" y="106.801" style="fill:#486BD4;" width="395.331" height="1"/>
		</g>
		<g>
			<g>
				<rect x="243.055" y="107.301" style="fill:#486BD4;" width="1" height="227.393"/>
			</g>
			<g>
				<rect x="384.957" y="107.301" style="fill:#486BD4;" width="1" height="227.393"/>
			</g>
		</g>
	</g>
	<g>
		<circle style="fill:#FFCF80;" cx="96.991" cy="88.002" r="2.145"/>
		<circle style="fill:#839FF2;" cx="104.704" cy="88.002" r="2.144"/>
		<path style="fill:#F56C7C;" d="M114.562,88.002c0,1.184-0.96,2.145-2.145,2.145c-1.184,0-2.145-0.96-2.145-2.145
			s0.96-2.145,2.145-2.145C113.602,85.857,114.562,86.817,114.562,88.002z"/>
	</g>
	<path style="fill:#7A9CFF;" d="M115.434,114.187h-20.55c-1.071,0-1.94-0.869-1.94-1.94l0,0c0-1.071,0.869-1.94,1.94-1.94h20.55
		c1.071,0,1.94,0.869,1.94,1.94l0,0C117.374,113.318,116.505,114.187,115.434,114.187z"/>
	<path style="fill:#7A9CFF;" d="M115.434,121.93h-20.55c-1.071,0-1.94-0.868-1.94-1.94l0,0c0-1.071,0.869-1.94,1.94-1.94h20.55
		c1.071,0,1.94,0.868,1.94,1.94l0,0C117.374,121.061,116.505,121.93,115.434,121.93z"/>
	<path style="fill:#7A9CFF;" d="M115.434,150.432h-20.55c-1.071,0-1.94-0.868-1.94-1.94l0,0c0-1.071,0.869-1.94,1.94-1.94h20.55
		c1.071,0,1.94,0.868,1.94,1.94l0,0C117.374,149.564,116.505,150.432,115.434,150.432z"/>
	<path style="fill:#7A9CFF;" d="M115.434,188.097h-20.55c-1.071,0-1.94-0.869-1.94-1.94l0,0c0-1.071,0.869-1.94,1.94-1.94h20.55
		c1.071,0,1.94,0.869,1.94,1.94l0,0C117.374,187.228,116.505,188.097,115.434,188.097z"/>
	<path style="fill:#7A9CFF;" d="M115.434,209.787h-20.55c-1.071,0-1.94-0.868-1.94-1.94l0,0c0-1.071,0.869-1.94,1.94-1.94h20.55
		c1.071,0,1.94,0.868,1.94,1.94l0,0C117.374,208.919,116.505,209.787,115.434,209.787z"/>
	<path style="fill:#7A9CFF;" d="M115.434,202.405h-20.55c-1.071,0-1.94-0.868-1.94-1.94l0,0c0-1.071,0.869-1.94,1.94-1.94h20.55
		c1.071,0,1.94,0.868,1.94,1.94l0,0C117.374,201.536,116.505,202.405,115.434,202.405z"/>
	<path style="fill:#7A9CFF;" d="M115.434,257.323h-20.55c-1.071,0-1.94-0.869-1.94-1.94v0c0-1.071,0.869-1.94,1.94-1.94h20.55
		c1.071,0,1.94,0.869,1.94,1.94v0C117.374,256.455,116.505,257.323,115.434,257.323z"/>
	<path style="fill:#7A9CFF;" d="M115.434,264.034h-20.55c-1.071,0-1.94-0.869-1.94-1.94l0,0c0-1.071,0.869-1.94,1.94-1.94h20.55
		c1.071,0,1.94,0.869,1.94,1.94l0,0C117.374,263.166,116.505,264.034,115.434,264.034z"/>
	<path style="fill:#7A9CFF;" d="M115.434,295.826h-20.55c-1.071,0-1.94-0.868-1.94-1.94l0,0c0-1.071,0.869-1.94,1.94-1.94h20.55
		c1.071,0,1.94,0.869,1.94,1.94l0,0C117.374,294.957,116.505,295.826,115.434,295.826z"/>
	<path style="fill:#7A9CFF;" d="M115.434,249.941h-20.55c-1.071,0-1.94-0.869-1.94-1.94v0c0-1.071,0.869-1.94,1.94-1.94h20.55
		c1.071,0,1.94,0.869,1.94,1.94v0C117.374,249.072,116.505,249.941,115.434,249.941z"/>
	<g>
		<path style="fill:#FFFFFF;" d="M166.622,87.101h-3.908v10.847h-1.595V87.101h-3.899V85.79h9.402V87.101z"/>
		<path style="fill:#FFFFFF;" d="M166.947,93.347c0-0.885,0.174-1.681,0.522-2.388c0.348-0.707,0.832-1.253,1.453-1.637
			c0.621-0.384,1.329-0.576,2.126-0.576c1.23,0,2.225,0.426,2.985,1.278c0.76,0.852,1.14,1.984,1.14,3.398v0.108
			c0,0.879-0.168,1.668-0.505,2.367c-0.337,0.699-0.818,1.243-1.445,1.632c-0.626,0.39-1.346,0.584-2.158,0.584
			c-1.225,0-2.217-0.426-2.977-1.277c-0.76-0.852-1.14-1.979-1.14-3.382V93.347z M168.5,93.531c0,1.002,0.232,1.806,0.697,2.413
			c0.464,0.607,1.086,0.91,1.866,0.91c0.785,0,1.408-0.308,1.87-0.923c0.462-0.615,0.693-1.477,0.693-2.584
			c0-0.991-0.235-1.794-0.706-2.409c-0.471-0.615-1.096-0.923-1.874-0.923c-0.763,0-1.378,0.304-1.846,0.91
			C168.734,91.532,168.5,92.401,168.5,93.531z"/>
		<path style="fill:#FFFFFF;" d="M180.967,93.355c0-1.386,0.328-2.501,0.985-3.344c0.657-0.843,1.517-1.265,2.58-1.265
			c1.058,0,1.896,0.362,2.514,1.085v-4.709h1.544v12.825h-1.419l-0.075-0.969c-0.618,0.757-1.478,1.136-2.58,1.136
			c-1.046,0-1.899-0.429-2.559-1.286c-0.66-0.857-0.989-1.976-0.989-3.357V93.355z M182.511,93.531c0,1.024,0.212,1.826,0.635,2.405
			c0.423,0.579,1.007,0.868,1.753,0.868c0.979,0,1.695-0.439,2.146-1.319v-4.15c-0.462-0.852-1.172-1.277-2.129-1.277
			c-0.757,0-1.347,0.293-1.77,0.877C182.723,91.519,182.511,92.384,182.511,93.531z"/>
		<path style="fill:#FFFFFF;" d="M190.577,93.347c0-0.885,0.174-1.681,0.522-2.388c0.348-0.707,0.832-1.253,1.453-1.637
			c0.621-0.384,1.329-0.576,2.125-0.576c1.23,0,2.225,0.426,2.985,1.278c0.76,0.852,1.14,1.984,1.14,3.398v0.108
			c0,0.879-0.168,1.668-0.505,2.367c-0.337,0.699-0.818,1.243-1.445,1.632c-0.626,0.39-1.346,0.584-2.158,0.584
			c-1.225,0-2.217-0.426-2.977-1.277c-0.76-0.852-1.14-1.979-1.14-3.382V93.347z M192.13,93.531c0,1.002,0.232,1.806,0.697,2.413
			c0.464,0.607,1.087,0.91,1.866,0.91c0.785,0,1.408-0.308,1.87-0.923c0.462-0.615,0.693-1.477,0.693-2.584
			c0-0.991-0.235-1.794-0.706-2.409c-0.471-0.615-1.096-0.923-1.875-0.923c-0.763,0-1.378,0.304-1.846,0.91
			C192.364,91.532,192.13,92.401,192.13,93.531z"/>
	</g>
	<g>
		<path style="fill:#FFFFFF;" d="M292.059,97.948V85.79h3.432c1.058,0,1.993,0.233,2.806,0.701c0.813,0.468,1.44,1.133,1.883,1.996
			c0.443,0.863,0.667,1.854,0.672,2.973v0.776c0,1.147-0.221,2.152-0.664,3.015c-0.442,0.863-1.074,1.525-1.895,1.987
			c-0.821,0.462-1.777,0.699-2.868,0.71H292.059z M293.662,87.101v9.536h1.687c1.235,0,2.197-0.384,2.885-1.153
			c0.688-0.769,1.031-1.863,1.031-3.284v-0.71c0-1.382-0.324-2.456-0.973-3.222c-0.649-0.766-1.569-1.155-2.76-1.166H293.662z"/>
		<path style="fill:#FFFFFF;" d="M302.621,93.347c0-0.885,0.174-1.681,0.521-2.388c0.349-0.707,0.833-1.253,1.453-1.637
			c0.621-0.384,1.329-0.576,2.125-0.576c1.23,0,2.226,0.426,2.985,1.278c0.76,0.852,1.14,1.984,1.14,3.398v0.108
			c0,0.879-0.168,1.668-0.505,2.367c-0.337,0.699-0.818,1.243-1.444,1.632c-0.627,0.39-1.346,0.584-2.159,0.584
			c-1.225,0-2.217-0.426-2.977-1.277c-0.76-0.852-1.14-1.979-1.14-3.382V93.347z M304.174,93.531c0,1.002,0.232,1.806,0.697,2.413
			c0.465,0.607,1.087,0.91,1.866,0.91c0.785,0,1.408-0.308,1.871-0.923c0.462-0.615,0.692-1.477,0.692-2.584
			c0-0.991-0.235-1.794-0.705-2.409c-0.471-0.615-1.096-0.923-1.875-0.923c-0.763,0-1.378,0.304-1.845,0.91
			C304.408,91.532,304.174,92.401,304.174,93.531z"/>
		<path style="fill:#FFFFFF;" d="M312.792,86.517c0-0.251,0.076-0.462,0.229-0.634c0.152-0.173,0.38-0.259,0.681-0.259
			c0.3,0,0.528,0.086,0.685,0.259c0.155,0.172,0.233,0.384,0.233,0.634c0,0.25-0.078,0.459-0.233,0.626
			c-0.156,0.167-0.385,0.251-0.685,0.251c-0.301,0-0.528-0.084-0.681-0.251C312.868,86.976,312.792,86.767,312.792,86.517z
			 M314.462,97.948h-1.545v-9.035h1.545V97.948z"/>
		<path style="fill:#FFFFFF;" d="M318.394,88.913l0.051,1.136c0.689-0.869,1.592-1.303,2.705-1.303c1.909,0,2.872,1.077,2.889,3.231
			v5.97h-1.544v-5.979c-0.006-0.651-0.155-1.133-0.447-1.444c-0.292-0.312-0.747-0.468-1.365-0.468c-0.501,0-0.94,0.134-1.319,0.401
			c-0.379,0.267-0.674,0.618-0.885,1.052v6.438h-1.545v-9.035H318.394z"/>
		<path style="fill:#FFFFFF;" d="M326.001,93.355c0-1.408,0.325-2.529,0.976-3.361c0.651-0.832,1.515-1.248,2.589-1.248
			c1.102,0,1.962,0.39,2.58,1.169l0.075-1.002h1.411v8.817c0,1.169-0.347,2.09-1.04,2.764c-0.692,0.673-1.624,1.01-2.793,1.01
			c-0.651,0-1.288-0.139-1.912-0.417c-0.623-0.278-1.1-0.66-1.428-1.144l0.802-0.927c0.662,0.818,1.473,1.228,2.43,1.228
			c0.752,0,1.337-0.212,1.758-0.635c0.42-0.423,0.63-1.019,0.63-1.787v-0.776c-0.617,0.713-1.461,1.069-2.529,1.069
			c-1.058,0-1.914-0.426-2.568-1.277C326.328,95.985,326.001,94.825,326.001,93.355z M327.554,93.531c0,1.019,0.209,1.819,0.626,2.4
			c0.418,0.582,1.002,0.873,1.754,0.873c0.974,0,1.689-0.442,2.146-1.328v-4.124c-0.473-0.863-1.183-1.295-2.129-1.295
			c-0.751,0-1.339,0.293-1.762,0.877C327.766,91.519,327.554,92.384,327.554,93.531z"/>
	</g>
	<g>
		<path style="fill:#FFFFFF;" d="M435.528,97.948V85.79h3.432c1.058,0,1.993,0.233,2.806,0.701c0.813,0.468,1.44,1.133,1.883,1.996
			c0.442,0.863,0.667,1.854,0.672,2.973v0.776c0,1.147-0.221,2.152-0.663,3.015c-0.442,0.863-1.074,1.525-1.896,1.987
			c-0.821,0.462-1.777,0.699-2.868,0.71H435.528z M437.132,87.101v9.536h1.687c1.235,0,2.197-0.384,2.885-1.153
			c0.688-0.769,1.031-1.863,1.031-3.284v-0.71c0-1.382-0.324-2.456-0.973-3.222c-0.648-0.766-1.568-1.155-2.76-1.166H437.132z"/>
		<path style="fill:#FFFFFF;" d="M446.091,93.347c0-0.885,0.174-1.681,0.521-2.388c0.349-0.707,0.833-1.253,1.453-1.637
			c0.621-0.384,1.329-0.576,2.125-0.576c1.23,0,2.226,0.426,2.985,1.278c0.76,0.852,1.14,1.984,1.14,3.398v0.108
			c0,0.879-0.168,1.668-0.505,2.367c-0.337,0.699-0.818,1.243-1.444,1.632c-0.627,0.39-1.346,0.584-2.159,0.584
			c-1.225,0-2.217-0.426-2.977-1.277c-0.76-0.852-1.14-1.979-1.14-3.382V93.347z M447.644,93.531c0,1.002,0.232,1.806,0.697,2.413
			c0.465,0.607,1.087,0.91,1.866,0.91c0.785,0,1.408-0.308,1.871-0.923c0.462-0.615,0.692-1.477,0.692-2.584
			c0-0.991-0.235-1.794-0.705-2.409c-0.471-0.615-1.096-0.923-1.875-0.923c-0.763,0-1.378,0.304-1.845,0.91
			C447.878,91.532,447.644,92.401,447.644,93.531z"/>
		<path style="fill:#FFFFFF;" d="M457.714,88.913l0.051,1.136c0.69-0.869,1.592-1.303,2.705-1.303c1.909,0,2.872,1.077,2.889,3.231
			v5.97h-1.544v-5.979c-0.006-0.651-0.155-1.133-0.447-1.444c-0.292-0.312-0.747-0.468-1.365-0.468
			c-0.501,0-0.941,0.134-1.319,0.401s-0.674,0.618-0.885,1.052v6.438h-1.545v-9.035H457.714z"/>
		<path style="fill:#FFFFFF;" d="M469.438,98.115c-1.225,0-2.221-0.402-2.989-1.206c-0.768-0.804-1.152-1.88-1.152-3.227v-0.284
			c0-0.896,0.171-1.696,0.514-2.4c0.343-0.704,0.821-1.255,1.436-1.653c0.614-0.398,1.281-0.597,1.999-0.597
			c1.175,0,2.088,0.387,2.739,1.161c0.651,0.774,0.977,1.882,0.977,3.323v0.643h-6.12c0.022,0.891,0.282,1.61,0.78,2.158
			c0.499,0.548,1.132,0.823,1.9,0.823c0.545,0,1.007-0.111,1.386-0.334c0.379-0.223,0.71-0.518,0.993-0.885l0.944,0.735
			C472.087,97.533,470.952,98.115,469.438,98.115z M469.245,90.015c-0.623,0-1.146,0.227-1.569,0.681
			c-0.423,0.454-0.685,1.09-0.785,1.908h4.526v-0.117c-0.045-0.785-0.257-1.393-0.635-1.824
			C470.403,90.231,469.892,90.015,469.245,90.015z"/>
	</g>
</g>
<g id="task">
	<path style="fill:#4973ED;" d="M171.569,158.087l-40.112-3.326c5.958-3.48,4.907-31.879,4.907-31.879h35.205V158.087z"/>
	<path style="fill:#C43D4D;" d="M222.593,173.448c0,0-24.977,5.679-38.853,0.552v-32.197h32.197
		C217.846,161.223,219.813,167.391,222.593,173.448z"/>
	<rect x="131.457" y="203.879" style="fill:#FFFFFF;" width="32.197" height="32.197"/>
	
		<rect x="342.679" y="148.476" transform="matrix(0.9912 0.1327 -0.1327 0.9912 25.0113 -46.1532)" style="fill:#FFFFFF;" width="32.197" height="32.197"/>
	<path style="fill:#FAEBD6;" d="M230.012,266.233c0,0-31.086-1.604-33.923-7.767l6.283-28.418l31.912,4.272L230.012,266.233z"/>
	
		<rect x="279.592" y="142.875" transform="matrix(0.9954 -0.0955 0.0955 0.9954 -13.8289 28.9613)" style="fill:#97DADE;" width="32.197" height="32.197"/>
	
		<rect x="259.54" y="124.439" transform="matrix(0.9912 0.1327 -0.1327 0.9912 21.2116 -35.4429)" style="fill:#FAEBD6;" width="33.974" height="33.974"/>
	<rect x="304.348" y="292.074" style="fill:#97DADE;" width="32.197" height="32.197"/>
	<path style="fill:#97DADE;" d="M460.002,314.619c0,0-16.126,9.928-42.944-0.625l2.228-33.38l36.129,2.228
		C455.416,282.842,453.798,310.649,460.002,314.619z"/>
	
		<rect x="395.708" y="194.726" transform="matrix(0.9984 -0.0565 0.0565 0.9984 -11.2612 23.6208)" style="fill:#FAEBD6;" width="32.197" height="32.197"/>
	<rect x="467.475" y="217.255" style="fill:#FFC057;" width="32.197" height="32.197"/>
	<rect x="443.904" y="160.282" style="fill:#FFFFFF;" width="32.197" height="32.197"/>
	
		<rect x="333.106" y="275.986" transform="matrix(0.9954 -0.0955 0.0955 0.9954 -26.4075 34.8034)" style="fill:#4973ED;" width="34.681" height="34.681"/>
	<path style="fill:#97DADE;" d="M434.117,146.168c-15.721,7.512-39.119,4.196-39.119,4.196c4.583-7.399,2.53-34.527,2.53-34.527
		h32.197L434.117,146.168z"/>
	
		<rect x="329.928" y="119.614" transform="matrix(0.9954 -0.0955 0.0955 0.9954 -11.3775 33.6603)" style="fill:#FFC057;" width="32.197" height="32.197"/>
	<g>
		
			<rect x="467.475" y="135.304" transform="matrix(0.9954 -0.0955 0.0955 0.9954 -12.2474 46.8673)" style="fill:#C43D4D;" width="32.197" height="32.197"/>
		<polygon style="fill:#FFFFFF;" points="490.138,159.201 484.134,156.884 478.822,160.516 479.17,154.09 474.074,150.16 
			480.293,148.506 482.456,142.445 485.951,147.849 492.384,148.033 488.325,153.027 		"/>
	</g>
	<g>
		
			<rect x="284.409" y="200.481" transform="matrix(0.9965 0.0841 -0.0841 0.9965 19.2794 -24.5059)" style="fill:#FFC057;" width="32.197" height="32.197"/>
		<polygon style="fill:#FFFFFF;" points="299.682,216.102 295.404,213.49 290.828,215.533 291.99,210.658 288.633,206.937 
			293.629,206.536 296.13,202.193 298.055,206.82 302.959,207.857 299.153,211.118 		"/>
		<polygon style="fill:#FFFFFF;" points="308.784,231.621 304.507,229.009 299.93,231.052 301.092,226.177 297.735,222.456 
			302.731,222.054 305.233,217.712 307.158,222.339 312.061,223.376 308.255,226.637 		"/>
	</g>
	<g>
		<path style="fill:#3E579E;" d="M266.124,129.886c7.976,1.735,16.141,2.4,24.117,4.134c0.47,0.102,0.672-0.62,0.199-0.723
			c-7.976-1.735-16.141-2.4-24.117-4.135C265.853,129.06,265.652,129.783,266.124,129.886L266.124,129.886z"/>
	</g>
	<g>
		<path style="fill:#3E579E;" d="M264.584,133.342c7.976,1.735,16.141,2.4,24.117,4.134c0.47,0.102,0.672-0.62,0.199-0.723
			c-7.976-1.735-16.141-2.4-24.117-4.134C264.313,132.516,264.111,133.239,264.584,133.342L264.584,133.342z"/>
	</g>
	<g>
		<path style="fill:#FFFFFF;" d="M362.763,261.114c-4.14,5.22-34.523-2.104-34.523-2.104l4.272-31.912l31.912,4.272L362.763,261.114
			z"/>
		<g>
			<path style="fill:#3E579E;" d="M338.456,235.266c6.314,0.906,12.627,1.813,18.94,2.719c0.472,0.068,0.676-0.655,0.199-0.723
				c-6.314-0.907-12.627-1.813-18.941-2.719C338.183,234.475,337.979,235.198,338.456,235.266L338.456,235.266z"/>
		</g>
		<g>
			<path style="fill:#3E579E;" d="M337.599,239.523c2.061,0.496,4.168,0.781,6.287,0.851c0.483,0.016,0.482-0.734,0-0.75
				c-2.054-0.068-4.089-0.343-6.087-0.824C337.33,238.688,337.13,239.411,337.599,239.523L337.599,239.523z"/>
		</g>
		<g>
			<path style="fill:#3E579E;" d="M336.733,248.19c6.445,1.176,12.97,1.844,19.52,1.991c0.483,0.011,0.483-0.739,0-0.75
				c-6.484-0.146-12.941-0.8-19.321-1.964C336.46,247.381,336.258,248.104,336.733,248.19L336.733,248.19z"/>
		</g>
		<g>
			<path style="fill:#3E579E;" d="M337.688,251.78c5.776,0.617,11.552,1.234,17.328,1.851c0.479,0.051,0.476-0.699,0-0.75
				c-5.776-0.617-11.552-1.234-17.328-1.851C337.208,250.979,337.212,251.729,337.688,251.78L337.688,251.78z"/>
		</g>
	</g>
	<g>
		<rect x="159.128" y="187.124" style="fill:#97DADE;" width="32.197" height="32.197"/>
		<g>
			<path style="fill:#3E579E;" d="M163.884,194.017c7.339,0.16,14.678,0.32,22.017,0.48c0.412,0.009,0.525-0.667,0.1-0.737
				c-0.183-0.03-0.365-0.06-0.548-0.09c-0.472-0.077-0.675,0.645-0.199,0.723c0.183,0.03,0.365,0.06,0.548,0.09
				c0.033-0.246,0.066-0.491,0.1-0.737c-7.339-0.16-14.678-0.32-22.017-0.48C163.401,193.257,163.401,194.007,163.884,194.017
				L163.884,194.017z"/>
		</g>
		<g>
			<path style="fill:#3E579E;" d="M164.615,198.31c7.155,0.089,14.311,0.178,21.466,0.266c0.401,0.005,0.471-0.493,0.189-0.699
				c-0.118-0.087-0.237-0.173-0.355-0.259c-0.39-0.285-0.765,0.365-0.378,0.648c0.118,0.087,0.237,0.173,0.355,0.259
				c0.063-0.233,0.126-0.466,0.189-0.699c-7.155-0.089-14.311-0.178-21.466-0.266C164.133,197.554,164.132,198.304,164.615,198.31
				L164.615,198.31z"/>
		</g>
		<g>
			<path style="fill:#3E579E;" d="M164.371,201.488c4.064,0.183,8.134,0.184,12.198,0.002c0.481-0.021,0.483-0.772,0-0.75
				c-4.064,0.182-8.134,0.181-12.198-0.002C163.888,200.716,163.89,201.466,164.371,201.488L164.371,201.488z"/>
		</g>
		<g>
			<path style="fill:#3E579E;" d="M164.985,211.937c6.728,0.683,13.49,0.933,20.25,0.751c0.373-0.01,0.509-0.502,0.189-0.699
				c-0.122-0.075-0.243-0.15-0.365-0.225c-0.412-0.254-0.789,0.395-0.379,0.648c0.122,0.075,0.243,0.15,0.365,0.225
				c0.063-0.233,0.126-0.466,0.189-0.699c-6.76,0.183-13.522-0.068-20.25-0.751C164.505,211.138,164.508,211.889,164.985,211.937
				L164.985,211.937z"/>
		</g>
	</g>
	<g>
		<rect x="438.53" y="236.347" style="fill:#97DADE;" width="32.197" height="32.197"/>
		<g>
			<path style="fill:#3E579E;" d="M443.286,243.24c7.339,0.16,14.678,0.32,22.017,0.48c0.412,0.009,0.525-0.667,0.1-0.737
				c-0.183-0.03-0.365-0.06-0.548-0.09c-0.472-0.077-0.675,0.645-0.199,0.723c0.183,0.03,0.365,0.06,0.548,0.09
				c0.033-0.245,0.066-0.491,0.1-0.737c-7.339-0.16-14.678-0.32-22.017-0.48C442.803,242.48,442.803,243.23,443.286,243.24
				L443.286,243.24z"/>
		</g>
		<g>
			<path style="fill:#3E579E;" d="M444.017,247.533c7.155,0.089,14.311,0.178,21.466,0.266c0.401,0.005,0.471-0.492,0.189-0.699
				c-0.118-0.087-0.237-0.173-0.355-0.26c-0.39-0.285-0.765,0.365-0.379,0.648c0.118,0.087,0.237,0.173,0.355,0.26
				c0.063-0.233,0.126-0.466,0.189-0.699c-7.155-0.089-14.311-0.178-21.466-0.266C443.534,246.777,443.534,247.527,444.017,247.533
				L444.017,247.533z"/>
		</g>
		<g>
			<path style="fill:#3E579E;" d="M443.773,250.711c4.064,0.183,8.134,0.184,12.198,0.002c0.481-0.022,0.483-0.772,0-0.75
				c-4.064,0.182-8.134,0.181-12.198-0.002C443.29,249.939,443.292,250.689,443.773,250.711L443.773,250.711z"/>
		</g>
		<g>
			<path style="fill:#3E579E;" d="M444.387,261.16c6.728,0.683,13.49,0.933,20.25,0.751c0.373-0.01,0.509-0.502,0.189-0.699
				c-0.122-0.075-0.243-0.15-0.365-0.225c-0.412-0.254-0.789,0.395-0.379,0.648c0.122,0.075,0.243,0.15,0.365,0.225
				c0.063-0.233,0.126-0.466,0.189-0.699c-6.76,0.183-13.522-0.068-20.25-0.751C443.907,260.362,443.91,261.112,444.387,261.16
				L444.387,261.16z"/>
		</g>
	</g>
	<g>
		<path style="fill:#3E579E;" d="M402.674,122.447c7.448-0.045,14.884-0.526,22.276-1.442c0.473-0.059,0.479-0.809,0-0.75
			c-7.392,0.916-14.828,1.397-22.276,1.442C402.191,121.7,402.19,122.45,402.674,122.447L402.674,122.447z"/>
	</g>
	<g>
		<path style="fill:#3E579E;" d="M403.097,126.228c3.993,0.236,7.994,0.229,11.986-0.021c0.479-0.03,0.483-0.78,0-0.75
			c-3.992,0.25-7.993,0.257-11.986,0.021C402.615,125.45,402.617,126.2,403.097,126.228L403.097,126.228z"/>
	</g>
	<g>
		<path style="fill:#3E579E;" d="M402.99,131.83c7.254,0.487,14.53,0.33,21.756-0.468c0.474-0.052,0.48-0.803,0-0.75
			c-7.226,0.798-14.503,0.955-21.756,0.468C402.508,131.048,402.51,131.798,402.99,131.83L402.99,131.83z"/>
	</g>
	<g>
		<path style="fill:#3E579E;" d="M403.514,145.354c7.734-0.062,15.455-0.59,23.126-1.582c0.472-0.061,0.478-0.812,0-0.75
			c-7.671,0.992-15.391,1.52-23.126,1.582C403.032,144.608,403.03,145.358,403.514,145.354L403.514,145.354z"/>
	</g>
	<path style="fill:#97DADE;" d="M205.46,316.562c-15.721,7.512-39.119,4.196-39.119,4.196c4.583-7.399,2.53-34.527,2.53-34.527
		h32.197L205.46,316.562z"/>
	<g>
		<path style="fill:#3E579E;" d="M174.017,292.841c7.448-0.045,14.884-0.526,22.276-1.442c0.473-0.059,0.479-0.809,0-0.75
			c-7.392,0.916-14.828,1.397-22.276,1.442C173.534,292.094,173.533,292.844,174.017,292.841L174.017,292.841z"/>
	</g>
	<g>
		<path style="fill:#3E579E;" d="M174.44,296.622c3.993,0.236,7.994,0.229,11.986-0.021c0.479-0.03,0.483-0.78,0-0.75
			c-3.992,0.25-7.993,0.257-11.986,0.021C173.957,295.843,173.959,296.594,174.44,296.622L174.44,296.622z"/>
	</g>
	<g>
		
			<rect x="277.186" y="277.46" transform="matrix(0.9954 -0.0955 0.0955 0.9954 -26.6912 29.3465)" style="fill:#C43D4D;" width="32.197" height="32.197"/>
		<g>
			<path style="fill:#FFFFFF;" d="M280.443,285.317c8.052-0.525,16.103-1.05,24.155-1.576c0.479-0.031,0.483-0.781,0-0.75
				c-8.052,0.525-16.103,1.05-24.155,1.576C279.964,284.599,279.96,285.349,280.443,285.317L280.443,285.317z"/>
		</g>
		<g>
			<path style="fill:#FFFFFF;" d="M281.691,287.935c5.599-0.508,11.199-1.017,16.798-1.525c0.477-0.043,0.481-0.794,0-0.75
				c-5.599,0.508-11.199,1.017-16.798,1.525C281.214,287.228,281.21,287.978,281.691,287.935L281.691,287.935z"/>
		</g>
		<g>
			<path style="fill:#FFFFFF;" d="M281.682,292.564c5.697,0.076,11.392-0.174,17.061-0.747c0.476-0.048,0.481-0.799,0-0.75
				c-5.669,0.574-11.364,0.823-17.061,0.747C281.199,291.808,281.199,292.558,281.682,292.564L281.682,292.564z"/>
		</g>
		<g>
			<path style="fill:#FFFFFF;" d="M282.685,304.611c7.97-0.593,15.939-1.185,23.909-1.778c0.478-0.036,0.482-0.786,0-0.75
				c-7.97,0.593-15.939,1.185-23.909,1.778C282.206,303.897,282.202,304.647,282.685,304.611L282.685,304.611z"/>
		</g>
		<g>
			<path style="fill:#FFFFFF;" d="M283.926,307.294c3.113-0.25,6.227-0.5,9.34-0.75c0.478-0.038,0.482-0.789,0-0.75
				c-3.113,0.25-6.227,0.5-9.34,0.75C283.448,306.582,283.444,307.333,283.926,307.294L283.926,307.294z"/>
		</g>
	</g>
	<g>
		<path style="fill:#FFFFFF;" d="M147.835,131.773c5.55,0.449,11.115,0.668,16.683,0.657c0-0.25,0-0.5,0-0.75
			c-0.169,0.017-0.338,0.034-0.506,0.051c-0.476,0.048-0.481,0.798,0,0.75c0.169-0.017,0.338-0.034,0.506-0.051
			c0.47-0.047,0.493-0.751,0-0.75c-5.568,0.012-11.133-0.208-16.683-0.657C147.353,130.984,147.356,131.734,147.835,131.773
			L147.835,131.773z"/>
	</g>
	<g>
		<path style="fill:#FFFFFF;" d="M148.243,135.721c5.278,0.624,10.591,0.86,15.904,0.705c0-0.25,0-0.5,0-0.75
			c-0.177,0.01-0.355,0.019-0.532,0.029c-0.48,0.026-0.483,0.776,0,0.75c0.177-0.01,0.355-0.019,0.532-0.029
			c0.479-0.026,0.485-0.764,0-0.75c-5.312,0.155-10.626-0.081-15.904-0.705C147.764,134.914,147.768,135.665,148.243,135.721
			L148.243,135.721z"/>
	</g>
	<g>
		<path style="fill:#FFFFFF;" d="M148.141,146.972c5.262,0.74,10.557,1.198,15.868,1.363c0.483,0.015,0.482-0.735,0-0.75
			c-5.243-0.162-10.474-0.605-15.669-1.336C147.868,146.183,147.664,146.905,148.141,146.972L148.141,146.972z"/>
	</g>
	<g>
		<path style="fill:#FFFFFF;" d="M147.89,150.582c5.651,0.778,11.349,1.079,17.05,0.883c0.481-0.016,0.484-0.767,0-0.75
			c-5.631,0.194-11.269-0.087-16.851-0.856C147.617,149.794,147.413,150.516,147.89,150.582L147.89,150.582z"/>
	</g>
	<rect x="139.251" y="129.589" style="fill:#FFFFFF;" width="6.069" height="6.069"/>
	
		<rect x="139.251" y="144.501" transform="matrix(0.9982 0.0607 -0.0607 0.9982 9.2125 -8.3602)" style="fill:#FFFFFF;" width="6.069" height="6.069"/>
	<path style="fill:#4973ED;" d="M293.883,257.791l-40.112-3.326c5.958-3.48,4.907-31.879,4.907-31.879h35.205V257.791z"/>
	<g>
		<path style="fill:#FFFFFF;" d="M270.149,231.477c5.55,0.449,11.115,0.668,16.683,0.657c0-0.25,0-0.5,0-0.75
			c-0.169,0.017-0.337,0.034-0.506,0.051c-0.476,0.048-0.481,0.798,0,0.75c0.169-0.017,0.337-0.034,0.506-0.051
			c0.47-0.047,0.493-0.751,0-0.75c-5.568,0.012-11.133-0.208-16.683-0.657C269.667,230.688,269.67,231.438,270.149,231.477
			L270.149,231.477z"/>
	</g>
	<g>
		<path style="fill:#FFFFFF;" d="M270.557,235.425c5.278,0.624,10.591,0.86,15.904,0.705c0-0.25,0-0.5,0-0.75
			c-0.177,0.01-0.355,0.019-0.532,0.029c-0.48,0.026-0.483,0.776,0,0.75c0.177-0.01,0.355-0.019,0.532-0.029
			c0.479-0.026,0.485-0.764,0-0.75c-5.312,0.155-10.626-0.081-15.904-0.705C270.078,234.618,270.082,235.368,270.557,235.425
			L270.557,235.425z"/>
	</g>
	<g>
		<path style="fill:#FFFFFF;" d="M270.455,246.676c5.262,0.74,10.557,1.198,15.868,1.363c0.483,0.015,0.482-0.735,0-0.75
			c-5.243-0.162-10.474-0.605-15.669-1.336C270.182,245.887,269.978,246.609,270.455,246.676L270.455,246.676z"/>
	</g>
	<g>
		<path style="fill:#FFFFFF;" d="M270.204,250.286c5.651,0.778,11.349,1.079,17.051,0.883c0.481-0.017,0.483-0.767,0-0.75
			c-5.631,0.194-11.269-0.087-16.851-0.856C269.931,249.497,269.727,250.22,270.204,250.286L270.204,250.286z"/>
	</g>
	<rect x="261.565" y="229.293" style="fill:#FFFFFF;" width="6.069" height="6.069"/>
	
		<rect x="261.565" y="244.205" transform="matrix(0.9982 0.0607 -0.0607 0.9982 15.4862 -15.5966)" style="fill:#FFFFFF;" width="6.069" height="6.069"/>
	<g>
		<path style="fill:#4973ED;" d="M262.496,232.107c0.476,0.489,0.953,0.979,1.429,1.468c0.22,0.226,0.45,0.545,0.774,0.617
			c0.34,0.076,0.616-0.148,0.772-0.429c0.378-0.679,0.678-1.412,1.001-2.118c0.097-0.211,0.193-0.423,0.289-0.635
			c0.083-0.184,0.053-0.404-0.135-0.513c-0.161-0.094-0.429-0.051-0.513,0.135c-0.209,0.462-0.421,0.923-0.634,1.383
			c-0.153,0.33-0.307,0.659-0.465,0.986c-0.066,0.136-0.129,0.276-0.204,0.407c-0.005,0.009-0.044,0.059-0.042,0.068
			c0.005,0.027-0.058-0.062,0.014-0.005c-0.004-0.003,0.105-0.01,0.101-0.001c-0.002,0.006-0.059-0.046-0.062-0.049
			c-0.112-0.1-0.212-0.217-0.317-0.324c-0.493-0.507-0.986-1.013-1.479-1.52C262.689,231.23,262.159,231.761,262.496,232.107
			L262.496,232.107z"/>
	</g>
	<g>
		<path style="fill:#4973ED;" d="M262.242,246.706c0.425,0.56,0.85,1.12,1.275,1.68c0.183,0.241,0.356,0.557,0.645,0.682
			c0.339,0.147,0.65-0.038,0.853-0.309c0.47-0.628,0.858-1.331,1.269-1.998c0.127-0.206,0.253-0.412,0.379-0.619
			c0.252-0.413-0.396-0.79-0.648-0.378c-0.261,0.429-0.525,0.856-0.79,1.282c-0.196,0.316-0.394,0.631-0.595,0.943
			c-0.075,0.117-0.17,0.231-0.235,0.353c-0.02,0.037-0.091,0.056,0.006,0.041c0.09-0.014,0.045,0.011,0.033-0.029
			c-0.009-0.03-0.069-0.084-0.09-0.111c-0.053-0.068-0.104-0.138-0.157-0.206c-0.433-0.57-0.865-1.139-1.298-1.709
			c-0.122-0.161-0.323-0.245-0.513-0.135C262.218,246.286,262.119,246.544,262.242,246.706L262.242,246.706z"/>
	</g>
	<g>
		<path style="fill:#FFFFFF;" d="M334.363,128.632c6.821-0.702,13.642-1.404,20.464-2.106c0.475-0.049,0.48-0.799,0-0.75
			c-6.821,0.702-13.642,1.404-20.464,2.106C333.887,127.931,333.882,128.681,334.363,128.632L334.363,128.632z"/>
	</g>
	<g>
		<path style="fill:#FFFFFF;" d="M334.173,132.32c7.429-0.865,14.88-1.523,22.346-1.975c-0.033-0.245-0.066-0.491-0.1-0.737
			c-0.194,0.068-0.387,0.137-0.581,0.205c-0.452,0.159-0.258,0.884,0.199,0.723c0.194-0.068,0.388-0.137,0.581-0.205
			c0.375-0.132,0.348-0.764-0.1-0.737c-7.466,0.451-14.917,1.11-22.346,1.975C333.7,131.625,333.694,132.376,334.173,132.32
			L334.173,132.32z"/>
	</g>
	<g>
		<path style="fill:#FFFFFF;" d="M335.249,136.056c6.241-0.045,12.465-0.507,18.645-1.373c0.476-0.067,0.273-0.789-0.199-0.723
			c-6.113,0.856-12.274,1.302-18.446,1.346C334.767,135.309,334.766,136.059,335.249,136.056L335.249,136.056z"/>
	</g>
	<g>
		<path style="fill:#FFFFFF;" d="M337.831,142.111c4.732-0.436,9.463-0.873,14.195-1.309c0.477-0.044,0.481-0.794,0-0.75
			c-4.732,0.437-9.463,0.873-14.195,1.309C337.354,141.405,337.35,142.156,337.831,142.111L337.831,142.111z"/>
	</g>
	<g>
		<path style="fill:#FFFFFF;" d="M425.261,292.378c8.378,1.03,16.863,0.731,25.274,1.311c0.482,0.033,0.48-0.717,0-0.75
			c-8.411-0.58-16.896-0.28-25.274-1.311C424.783,291.569,424.787,292.319,425.261,292.378L425.261,292.378z"/>
	</g>
	<g>
		<path style="fill:#FFFFFF;" d="M425.292,298.81c8.414,0.47,16.828,0.941,25.242,1.411c0.482,0.027,0.481-0.723,0-0.75
			c-8.414-0.471-16.828-0.941-25.242-1.411C424.81,298.033,424.812,298.783,425.292,298.81L425.292,298.81z"/>
	</g>
	<g>
		
			<rect x="125.221" y="277.788" transform="matrix(0.9954 -0.0955 0.0955 0.9954 -27.4168 14.8372)" style="fill:#FFC057;" width="32.197" height="32.197"/>
		<g>
			<path style="fill:#FFFFFF;" d="M128.618,285.473c7.824-0.675,15.68-0.738,23.477-1.74c0.472-0.061,0.478-0.811,0-0.75
				c-7.797,1.003-15.654,1.065-23.477,1.74C128.141,284.764,128.136,285.514,128.618,285.473L128.618,285.473z"/>
		</g>
		<g>
			<path style="fill:#FFFFFF;" d="M129.31,289.891c6.376-0.59,12.748,0.324,19.115-0.47c0.473-0.059,0.479-0.81,0-0.75
				c-6.367,0.794-12.739-0.12-19.115,0.47C128.833,289.185,128.829,289.935,129.31,289.891L129.31,289.891z"/>
		</g>
		<g>
			<path style="fill:#FFFFFF;" d="M130.497,304.79c7.841-0.752,15.683-1.505,23.524-2.257c0.476-0.046,0.481-0.796,0-0.75
				c-7.841,0.752-15.683,1.505-23.524,2.257C130.021,304.086,130.016,304.836,130.497,304.79L130.497,304.79z"/>
		</g>
	</g>
	
		<rect x="196.685" y="133.289" transform="matrix(0.9911 -0.1331 0.1331 0.9911 -16.724 27.6927)" style="fill:#4973ED;" width="4.316" height="11.384"/>
	<rect x="479.257" y="209.955" style="fill:#4973ED;" width="4.316" height="11.384"/>
	<rect x="407.143" y="187.223" style="fill:#4973ED;" width="4.316" height="11.384"/>
	<rect x="318.73" y="283.654" style="fill:#4973ED;" width="4.316" height="11.384"/>
	
		<rect x="341.332" y="111.08" transform="matrix(0.976 -0.2179 0.2179 0.976 -17.1928 77.6687)" style="fill:#4973ED;" width="4.316" height="11.384"/>
	
		<rect x="218.649" y="224.249" transform="matrix(0.9439 0.3304 -0.3304 0.9439 88.3577 -60.0343)" style="fill:#4973ED;" width="4.316" height="11.384"/>
</g>
<g id="could">
	<path style="fill:#FFF0DA;" d="M99.14,100.821H36.902c1.781-1.79,5.143-3.315,9.095-3.95c1.136-0.178,2.24-0.271,3.286-0.284
		c2.811-0.036,5.589-0.824,8.08-2.367c1.801-1.115,3.85-2.072,6.073-2.786c6.712-2.165,13.012-1.51,16.085,1.286
		c1.71,1.556,3.882,2.263,6.03,2.045c7.017-0.711,13.444,2.468,13.589,6.054C99.141,100.82,99.141,100.821,99.14,100.821z"/>
	<path style="fill:#FFF0DA;" d="M149.39,327.014H36.496c3.23-2.738,9.328-5.07,16.498-6.04c2.06-0.273,4.063-0.414,5.962-0.434
		c5.098-0.055,10.137-1.26,14.657-3.62c3.267-1.705,6.983-3.168,11.017-4.26c12.175-3.31,23.602-2.309,29.177,1.967
		c3.102,2.379,7.042,3.46,10.937,3.128c12.727-1.087,24.387,3.774,24.649,9.257C149.392,327.012,149.391,327.013,149.39,327.014z"/>
	<path style="fill:#B6ECF0;" d="M568.596,371.443c-0.427-8.807-11.32-13.78-23.958-11.085l-0.474,0.103
		c-5.588,1.214-11.209-0.925-15.914-5.566c-8.844-8.724-23.565-14.438-40.226-14.438c-9.811,0-21.711,4.962-30.219,9.287
		c-6.657,3.384-13.672,4.736-20.704,4.364c-3.505-0.185-7.274,0.11-11.169,0.947c-11.404,2.448-20.9,8.91-25.409,16.402h38.692
		h18.948h68.322h10.349l31.754,0C568.591,371.452,568.593,371.449,568.596,371.443z"/>
	<path style="fill:#FFF0DA;" d="M568.596,123.126c-0.202-2.811-5.366-4.397-11.357-3.537l-0.225,0.033
		c-2.649,0.387-5.313-0.295-7.543-1.776c-4.192-2.784-11.17-4.608-19.068-4.608c-4.651,0-10.291,1.584-14.324,2.964
		c-3.156,1.08-6.481,1.511-9.814,1.393c-1.661-0.059-3.448,0.035-5.294,0.302c-5.405,0.781-9.907,2.843-12.044,5.234h18.34h8.982
		h32.385h4.905h15.052C568.594,123.128,568.595,123.127,568.596,123.126z"/>
	<path style="fill:#B6ECF0;" d="M407.143,32.771c-0.14-1.944-3.712-3.042-7.857-2.447l-0.155,0.023
		c-1.833,0.268-3.676-0.204-5.219-1.229c-2.9-1.926-7.728-3.188-13.193-3.188c-3.218,0-7.12,1.096-9.911,2.051
		c-2.183,0.747-4.484,1.046-6.79,0.964c-1.15-0.041-2.385,0.024-3.663,0.209c-3.74,0.54-6.854,1.967-8.333,3.622h12.689h6.214
		h22.407h3.394h10.414C407.141,32.773,407.142,32.772,407.143,32.771z"/>
	<path style="fill:#B6ECF0;" d="M259.318,38.494H132.857c3.618-3.067,10.449-5.679,18.481-6.766
		c2.308-0.305,4.551-0.463,6.678-0.486c5.711-0.061,11.355-1.412,16.418-4.055c3.659-1.91,7.823-3.549,12.34-4.772
		c13.638-3.708,26.438-2.586,32.684,2.203c3.475,2.665,7.888,3.876,12.251,3.503c14.257-1.218,27.318,4.227,27.612,10.369
		C259.32,38.492,259.319,38.493,259.318,38.494z"/>
</g>
</svg>
